<mxfile host="65bd71144e">
    <diagram id="Q_gnbKTeyiXWPWC7qA7N" name="PÃ¡gina-1">
        <mxGraphModel dx="356" dy="227" grid="1" gridSize="10" guides="1" tooltips="1" connect="1" arrows="1" fold="1" page="1" pageScale="1" pageWidth="827" pageHeight="1169" math="0" shadow="0">
            <root>
                <mxCell id="0"/>
                <mxCell id="1" parent="0"/>
                <mxCell id="2" value="Associative&#xa;Entity" style="shape=associativeEntity;whiteSpace=wrap;html=1;align=center;" vertex="1" parent="1">
                    <mxGeometry x="110" y="90" width="140" height="60" as="geometry"/>
                </mxCell>
                <mxCell id="3" value="Attribute" style="ellipse;shape=doubleEllipse;margin=3;whiteSpace=wrap;html=1;align=center;" vertex="1" parent="1">
                    <mxGeometry x="130" y="100" width="100" height="40" as="geometry"/>
                </mxCell>
                <mxCell id="10" value="Estudiante" style="swimlane;childLayout=stackLayout;horizontal=1;startSize=40;horizontalStack=0;rounded=1;fontSize=14;fontStyle=0;strokeWidth=2;resizeParent=0;resizeLast=1;shadow=0;dashed=0;align=center;arcSize=4;whiteSpace=wrap;html=1;" vertex="1" parent="1">
                    <mxGeometry x="270" y="850" width="160" height="120" as="geometry"/>
                </mxCell>
                <mxCell id="11" value="&lt;u&gt;id_estudiante (PK)&lt;/u&gt;&lt;div&gt;&amp;nbsp;nombre&lt;br&gt;apellido&amp;nbsp;&lt;/div&gt;&lt;div&gt;fecha_nacimiento&lt;span style=&quot;background-color: transparent;&quot;&gt;&amp;nbsp;&lt;/span&gt;&lt;/div&gt;&lt;div&gt;&lt;span style=&quot;background-color: transparent;&quot;&gt;email&lt;/span&gt;&lt;/div&gt;" style="align=left;strokeColor=none;fillColor=none;spacingLeft=4;fontSize=12;verticalAlign=top;resizable=0;rotatable=0;part=1;html=1;" vertex="1" parent="10">
                    <mxGeometry y="40" width="160" height="80" as="geometry"/>
                </mxCell>
                <mxCell id="12" value="Curso" style="swimlane;childLayout=stackLayout;horizontal=1;startSize=50;horizontalStack=0;rounded=1;fontSize=14;fontStyle=0;strokeWidth=2;resizeParent=0;resizeLast=1;shadow=0;dashed=0;align=center;arcSize=4;whiteSpace=wrap;html=1;" vertex="1" parent="1">
                    <mxGeometry x="200" y="1140" width="160" height="120" as="geometry"/>
                </mxCell>
                <mxCell id="20" value="&lt;u&gt;id_curso (PK)&lt;br&gt;&lt;/u&gt;nombre_curso&lt;br&gt;creditos&lt;br&gt;descripcion" style="align=left;strokeColor=none;fillColor=none;spacingLeft=4;fontSize=12;verticalAlign=top;resizable=0;rotatable=0;part=1;html=1;" vertex="1" parent="12">
                    <mxGeometry y="50" width="160" height="70" as="geometry"/>
                </mxCell>
                <mxCell id="14" value="Inscripciones" style="swimlane;childLayout=stackLayout;horizontal=1;startSize=50;horizontalStack=0;rounded=1;fontSize=14;fontStyle=0;strokeWidth=2;resizeParent=0;resizeLast=1;shadow=0;dashed=0;align=center;arcSize=4;whiteSpace=wrap;html=1;" vertex="1" parent="1">
                    <mxGeometry x="160" y="990" width="160" height="120" as="geometry"/>
                </mxCell>
                <mxCell id="15" value="&lt;u&gt;id_inscripcion (PK)&lt;br&gt;&lt;/u&gt;id_estudiante (FK)&lt;br&gt;id_curso (FK)&lt;br&gt;fecha_inscripcion" style="align=left;strokeColor=none;fillColor=none;spacingLeft=4;fontSize=12;verticalAlign=top;resizable=0;rotatable=0;part=1;html=1;" vertex="1" parent="14">
                    <mxGeometry y="50" width="160" height="70" as="geometry"/>
                </mxCell>
                <mxCell id="17" value="" style="edgeStyle=entityRelationEdgeStyle;fontSize=12;html=1;endArrow=ERoneToMany;startArrow=ERzeroToOne;" edge="1" parent="1" target="14">
                    <mxGeometry width="100" height="100" relative="1" as="geometry">
                        <mxPoint x="430" y="930" as="sourcePoint"/>
                        <mxPoint x="530" y="830" as="targetPoint"/>
                    </mxGeometry>
                </mxCell>
                <mxCell id="24" value="" style="edgeStyle=entityRelationEdgeStyle;fontSize=12;html=1;endArrow=ERzeroToMany;startArrow=ERzeroToOne;entryX=0.613;entryY=-0.003;entryDx=0;entryDy=0;entryPerimeter=0;exitX=1;exitY=0.5;exitDx=0;exitDy=0;" edge="1" parent="1" source="15">
                    <mxGeometry width="100" height="100" relative="1" as="geometry">
                        <mxPoint x="322.00000000000006" y="1030" as="sourcePoint"/>
                        <mxPoint x="200.00000000000006" y="1179.68" as="targetPoint"/>
                        <Array as="points">
                            <mxPoint x="271.92" y="1060.04"/>
                            <mxPoint x="211.92000000000002" y="1180.04"/>
                            <mxPoint x="241.92000000000002" y="1160.04"/>
                        </Array>
                    </mxGeometry>
                </mxCell>
            </root>
        </mxGraphModel>
    </diagram>
</mxfile>